<mxfile host="app.diagrams.net" agent="Mozilla/5.0 (X11; Ubuntu; Linux x86_64; rv:137.0) Gecko/20100101 Firefox/137.0" version="26.2.14">
  <diagram name="Página-1" id="aDJFjuvdfm2m0iCEc46m">
    <mxGraphModel dx="1251" dy="483" grid="1" gridSize="10" guides="1" tooltips="1" connect="1" arrows="1" fold="1" page="1" pageScale="1" pageWidth="827" pageHeight="1169" math="0" shadow="0">
      <root>
        <mxCell id="0" />
        <mxCell id="1" parent="0" />
        <mxCell id="2PydGYi8qXmNow0a-F2Y-10" style="edgeStyle=orthogonalEdgeStyle;rounded=0;orthogonalLoop=1;jettySize=auto;html=1;exitX=1;exitY=0.5;exitDx=0;exitDy=0;" edge="1" parent="1" source="2PydGYi8qXmNow0a-F2Y-2">
          <mxGeometry relative="1" as="geometry">
            <mxPoint x="320" y="285.1379310344828" as="targetPoint" />
          </mxGeometry>
        </mxCell>
        <mxCell id="2PydGYi8qXmNow0a-F2Y-2" value="PC" style="whiteSpace=wrap;html=1;" vertex="1" parent="1">
          <mxGeometry x="229.37" y="265" width="40" height="40" as="geometry" />
        </mxCell>
        <mxCell id="2PydGYi8qXmNow0a-F2Y-3" value="" style="group" vertex="1" connectable="0" parent="1">
          <mxGeometry x="150" y="260" width="40" height="75" as="geometry" />
        </mxCell>
        <mxCell id="2PydGYi8qXmNow0a-F2Y-4" value="" style="rounded=1;whiteSpace=wrap;html=1;rotation=-90;" vertex="1" parent="2PydGYi8qXmNow0a-F2Y-3">
          <mxGeometry x="-17.5" y="22.5" width="75" height="30" as="geometry" />
        </mxCell>
        <mxCell id="2PydGYi8qXmNow0a-F2Y-5" value="&lt;font style=&quot;font-size: 8px;&quot;&gt;MUX&lt;/font&gt;" style="text;html=1;align=center;verticalAlign=middle;resizable=0;points=[];autosize=1;strokeColor=none;fillColor=none;" vertex="1" parent="2PydGYi8qXmNow0a-F2Y-3">
          <mxGeometry y="20" width="40" height="30" as="geometry" />
        </mxCell>
        <mxCell id="2PydGYi8qXmNow0a-F2Y-6" style="edgeStyle=orthogonalEdgeStyle;rounded=0;orthogonalLoop=1;jettySize=auto;html=1;entryX=0;entryY=0.5;entryDx=0;entryDy=0;" edge="1" parent="1" source="2PydGYi8qXmNow0a-F2Y-5" target="2PydGYi8qXmNow0a-F2Y-2">
          <mxGeometry relative="1" as="geometry">
            <Array as="points">
              <mxPoint x="220" y="285" />
              <mxPoint x="220" y="285" />
            </Array>
          </mxGeometry>
        </mxCell>
        <mxCell id="2PydGYi8qXmNow0a-F2Y-7" style="edgeStyle=orthogonalEdgeStyle;rounded=0;orthogonalLoop=1;jettySize=auto;html=1;exitX=1;exitY=0.5;exitDx=0;exitDy=0;entryX=0.039;entryY=0.168;entryDx=0;entryDy=0;entryPerimeter=0;" edge="1" parent="1" source="2PydGYi8qXmNow0a-F2Y-8" target="2PydGYi8qXmNow0a-F2Y-5">
          <mxGeometry relative="1" as="geometry">
            <mxPoint x="140" y="285.28571428571433" as="targetPoint" />
          </mxGeometry>
        </mxCell>
        <mxCell id="2PydGYi8qXmNow0a-F2Y-8" value="Valores possíveis do PC" style="text;html=1;align=center;verticalAlign=middle;whiteSpace=wrap;rounded=0;fontColor=light-dark(#000000,#000000);" vertex="1" parent="1">
          <mxGeometry x="60" y="270" width="60" height="30" as="geometry" />
        </mxCell>
        <mxCell id="2PydGYi8qXmNow0a-F2Y-15" style="edgeStyle=orthogonalEdgeStyle;rounded=0;orthogonalLoop=1;jettySize=auto;html=1;exitX=1;exitY=0.5;exitDx=0;exitDy=0;" edge="1" parent="1" source="2PydGYi8qXmNow0a-F2Y-9">
          <mxGeometry relative="1" as="geometry">
            <mxPoint x="530" y="287.2068965517242" as="targetPoint" />
          </mxGeometry>
        </mxCell>
        <mxCell id="2PydGYi8qXmNow0a-F2Y-9" value="MEMÓRIA DOS MICROCÓDIGOS" style="whiteSpace=wrap;html=1;" vertex="1" parent="1">
          <mxGeometry x="320" y="240" width="120" height="95" as="geometry" />
        </mxCell>
        <mxCell id="2PydGYi8qXmNow0a-F2Y-12" value="&lt;div&gt;PROCESSADOR&lt;/div&gt;&lt;div&gt;MONOCICLO&lt;/div&gt;" style="whiteSpace=wrap;html=1;" vertex="1" parent="1">
          <mxGeometry x="530" y="237.5" width="120" height="95" as="geometry" />
        </mxCell>
        <mxCell id="2PydGYi8qXmNow0a-F2Y-16" value="Contador Add Vector" style="whiteSpace=wrap;html=1;" vertex="1" parent="1">
          <mxGeometry x="520" y="440" width="150" height="60" as="geometry" />
        </mxCell>
        <mxCell id="2PydGYi8qXmNow0a-F2Y-17" value="Contador Load Vector" style="whiteSpace=wrap;html=1;" vertex="1" parent="1">
          <mxGeometry x="160" y="440" width="150" height="60" as="geometry" />
        </mxCell>
        <mxCell id="2PydGYi8qXmNow0a-F2Y-19" style="edgeStyle=orthogonalEdgeStyle;rounded=0;orthogonalLoop=1;jettySize=auto;html=1;" edge="1" parent="1" source="2PydGYi8qXmNow0a-F2Y-18">
          <mxGeometry relative="1" as="geometry">
            <mxPoint x="320" y="470" as="targetPoint" />
          </mxGeometry>
        </mxCell>
        <mxCell id="2PydGYi8qXmNow0a-F2Y-18" value="data" style="text;html=1;align=center;verticalAlign=middle;resizable=0;points=[];autosize=1;strokeColor=none;fillColor=none;" vertex="1" parent="1">
          <mxGeometry x="340" y="455" width="50" height="30" as="geometry" />
        </mxCell>
        <mxCell id="2PydGYi8qXmNow0a-F2Y-21" style="edgeStyle=orthogonalEdgeStyle;rounded=0;orthogonalLoop=1;jettySize=auto;html=1;" edge="1" parent="1" source="2PydGYi8qXmNow0a-F2Y-20">
          <mxGeometry relative="1" as="geometry">
            <mxPoint x="680" y="470" as="targetPoint" />
          </mxGeometry>
        </mxCell>
        <mxCell id="2PydGYi8qXmNow0a-F2Y-20" value="data" style="text;html=1;align=center;verticalAlign=middle;resizable=0;points=[];autosize=1;strokeColor=none;fillColor=none;" vertex="1" parent="1">
          <mxGeometry x="700" y="455" width="50" height="30" as="geometry" />
        </mxCell>
      </root>
    </mxGraphModel>
  </diagram>
</mxfile>
